<?xml version="1.0" encoding="UTF-8"?>
<!DOCTYPE svg PUBLIC "-//W3C//DTD SVG 1.1//EN" "http://www.w3.org/Graphics/SVG/1.1/DTD/svg11.dtd">
<svg version="1.1" xmlns="http://www.w3.org/2000/svg" xmlns:xlink="http://www.w3.org/1999/xlink" x="0" y="0" width="114" height="114" viewBox="0, 0, 114, 114">
  <g id="レイヤー_1">
    <path d="M-1.281,0 L115.304,-0.251 L115.551,115.038 L-1.033,115.289 L-1.281,0 z" fill="#FFFFFF"/>
    <path d="M30.9,2.7 L43.3,3.1 L41.4,5.2 L39.5,7.4 L42.7,5.2 C45.4,3.3 47.2,3 55.6,3 C64.5,3 65.2,3.1 63.4,4.5 C61.8,5.7 62.1,5.7 65.4,4.4 C68.5,3.2 72.3,2.9 83.6,3.2 C97.6,3.5 97.9,3.6 102.1,6.5 C104.4,8.1 106.5,10 106.7,10.6 C107.1,11.9 100.2,14.2 99.5,13 C99.2,12.5 97.5,11.1 95.7,9.9 L92.5,7.7 L95.4,10.8 C97,12.6 98.2,14.2 97.9,14.4 C97.7,14.6 94.6,15.8 91.2,17 C84.1,19.6 84.5,18.3 86.9,30.1 C88.3,36.8 87.2,41 84,41 C82.3,41 82,40.3 81.9,35.7 C81.8,26.5 80.7,26 77.7,33.7 C74.9,40.9 68.1,53 66.9,53 C65.4,53 63,40.9 63,33.4 C63,28.6 62.6,26 62.1,26.9 C61.4,28 61.2,28 60.7,26.9 C60.5,26.1 59.9,27.3 59.5,29.5 C58.3,35.6 57.8,36.3 55.2,34.4 C53.3,33.1 53.1,32.3 53.6,28.9 C54,26.4 53.9,25 53.2,25 C51.7,25 49.7,28.8 50.3,30.4 C50.7,31.3 50,31.7 48.7,31.6 C46.8,31.5 46.5,30.9 46.7,27.5 L46.9,23.5 L45.4,28.5 C44.5,31.2 43,36 41.9,39 L40,44.5 L40.4,36.4 C40.7,31.1 41.5,26.6 42.8,23.6 C45.4,17.9 44.8,17.5 42,23.1 C39.1,28.6 37.5,41.8 38.6,50.5 C39.1,54.7 39.5,56.3 39.7,54.5 C40.6,45.8 45,34.5 45,40.9 C45,42 45.5,44.1 46.2,45.7 L47.3,48.5 L48.1,44 C49.1,38.7 50.9,34 52,34 C52.4,34 53,35.9 53.2,38.2 C53.5,40.6 54.5,44.3 55.5,46.5 L57.3,50.5 L58.1,44.8 C58.6,41.6 59.5,38 60.2,36.8 C61.3,34.7 61.5,35 62.2,40.5 C63,47.1 65.2,54.2 66.6,54.7 C67.1,54.8 69.2,52.3 71.4,49 C76.6,40.9 78.5,41 77.6,49.2 L76.9,55.4 L79.1,53.5 C80.3,52.4 82.6,49.5 84.2,47.1 L87,42.6 L87,46.1 C87,47.9 86.7,51.2 86.4,53.2 L85.8,56.9 L81.1,56.3 C75.9,55.7 73,57.4 73,61.1 C73,62.9 73.2,62.9 75.3,60.6 C77.3,58.3 77.7,58.2 79.4,59.5 C81.6,61.1 80.8,64.5 78.5,63.6 C77.3,63.2 77,63.9 77,67 C77,71.3 79.9,74.4 82.9,73.2 C84.3,72.7 84.2,72.5 82.5,72.2 C78.9,71.5 78.9,70.4 82.5,70.6 C85.5,70.9 86.1,70.6 86.6,68.4 C86.9,67.1 87,64.8 86.8,63.5 C86.1,60.2 87.7,60.3 89.2,63.6 C90.1,65.5 90.1,66.9 89.3,69.1 C88.7,70.7 88.6,71.8 89.1,71.4 C91.5,69.9 87.8,77.4 84.1,81.4 C81.5,84.2 81.5,84.2 83.8,83.5 C86.2,82.8 94.6,78.9 98.8,76.5 C100.1,75.8 101.8,74.3 102.6,73.1 C104.5,70.4 106,70.4 105.3,73 C104.5,76.1 98.6,80.7 94.4,81.4 C92.4,81.8 89.2,83.3 87.3,84.7 C83.2,87.9 72.3,91 65.5,91 C59.7,91 56.9,89.7 50,83.9 C44.7,79.4 42.7,76.9 41.5,73 C40.8,70.8 40.9,70.7 42.4,71.9 C45.4,74.4 44,72 40.4,68.3 C36.1,64.1 32.5,56.7 30.9,49 C29.5,42.3 30.9,32.9 34.6,25 C37.4,18.8 37.1,16.9 34.1,22.7 C30.5,29.9 28.7,38.8 29.3,47.5 L29.8,55.5 L25.8,60 C23.3,62.8 22,63.7 22.4,62.5 C22.6,61.4 24.1,54.2 25.5,46.5 C26.9,38.8 28.8,30.3 29.7,27.7 C30.5,25 31,22.7 30.7,22.4 C30.3,21.9 27.5,28.8 26.5,33.1 C26,35.1 24.4,36.3 18.5,38.8 C14.4,40.6 10.8,42 10.5,42 C9.9,42 18.3,30.9 27.8,19 L32.2,13.5 L27.9,18.1 C23.4,22.8 7,43.4 7,44.3 C7,44.6 11,43.2 16,41.2 C20.9,39.3 25.2,37.9 25.5,38.1 C25.9,38.6 22,60 21.3,60.9 C21.2,61.1 20.4,60.8 19.7,60.1 C18.2,58.9 16.8,60.1 10.9,67.2 C8.9,69.7 7,71 5.4,71 C4.1,71 3,71.4 3,71.8 C3,72.2 5.6,72.2 8.8,71.7 C13.5,70.9 15.4,71.1 19.5,72.7 C24.4,74.5 25.3,75.5 30.5,84.1 C34.7,91.1 35.4,92.6 35.7,95.9 C35.9,98.7 35.3,99.9 32.5,102.6 C30.5,104.4 26.3,106.9 23,108.1 C19.7,109.3 17.3,110.6 17.5,111 C17.8,111.5 18.6,111.7 19.3,111.6 C21,111.3 28.9,107.1 32.3,104.8 L35,102.9 L35,105.5 C35,108.5 36.6,112 38,112 C38.6,112 38.5,111.2 37.9,110.1 C36.2,107.5 37.5,105.1 41,104.4 C42.6,104 44,103.4 44,102.9 C44,101.7 43.3,101.8 40.1,103.5 C37,105.1 36,104.7 36,101.7 C36,100.1 36.6,99.8 39.7,100.2 C44.4,100.8 46.6,98.6 47.5,92.7 C48.6,85.8 49.2,85.3 53.3,88.4 C55.3,89.9 58.4,91.5 60.2,92.1 C63.2,92.9 63.6,93.3 63.4,96.2 C63.3,99 63.3,99.1 63.7,96.7 C64,94.8 64.6,94 65.5,94.4 C66.4,94.7 66.7,94.4 66.4,93.5 C66,92.5 66.6,92.3 69.4,93 C72.3,93.6 73.9,93.3 78.6,90.8 C83.1,88.4 84.2,88.1 83.6,89.5 C83.3,90.4 83,91.7 83,92.4 C83,93.1 81.9,95.4 80.5,97.4 C79.2,99.4 78.3,101 78.7,101 C79,101 78.6,101.8 77.9,102.7 C77.2,103.7 78,103.2 79.8,101.6 C81.5,100 82.7,98.4 82.5,98 C82.2,97.5 82.6,95.7 83.4,93.9 C84.3,91.8 85,91.1 85.2,92.1 C85.5,92.9 85.5,92.4 85.3,91.2 C85.1,89.8 85.3,89.1 85.9,89.4 C86.4,89.8 87,89 87.2,87.8 C87.7,84.3 90.3,84.5 96.4,88.6 C102.7,92.7 104.5,96.5 103.7,103.6 C103.5,106 103.5,108 103.8,108 C104.4,108 109,103.1 109,102.4 C109,102.2 108,101.5 106.8,101 C104.6,100.2 104.6,100.1 107.3,100.1 C110.2,100 111.1,98.1 108.3,97.9 C107.3,97.8 106.2,97.8 105.9,97.8 C105.5,97.9 104.6,96.6 103.9,94.9 C103.3,93.2 100.2,90 97.2,87.7 L91.8,83.6 L95.3,82.4 C99.2,81 106.5,76.7 109.7,73.8 C111.4,72.2 111.6,71.3 111,69.1 C110.6,67.5 110.7,65.6 111.2,64.6 C112.6,62.1 111.1,61.1 109.4,63.5 C107,66.9 97.7,76 96.6,76 C96,76 96.9,74.8 98.6,73.2 C100.3,71.7 102.5,69.4 103.5,68 C104.6,66.6 102.5,68.2 99,71.6 C92.5,77.7 88.2,81 86.8,81 C86.4,81 87.4,78.7 89,75.9 C90.7,73.2 92.9,68.4 93.9,65.3 C95.4,60.8 95.9,60.1 96.7,61.5 C97.6,63 98.3,63.1 103.2,62.1 C106.3,61.4 109.6,60.2 110.6,59.4 C112.7,57.7 113.3,57.7 103.3,59.6 C100.2,60.2 99.9,60 98.4,56.5 C97.6,54.5 97.1,52.6 97.3,52.3 C97.6,52.1 98.3,53.5 99,55.4 C100.3,59.3 101.2,59.6 107.1,57.8 C111.7,56.5 112.2,55 108.1,55 C106.1,55 104.4,54.1 102.6,51.9 C100,48.9 99.1,46.3 101,47.5 C101.6,47.8 102,48.7 102,49.4 C102,53.5 111.1,55.7 111.8,51.7 C112.1,50.5 111.5,50 109.6,50 C108.1,50 106.5,49.2 105.8,48 C105.1,46.9 103.9,46 103.2,46 C102.5,46 102.2,45.5 102.6,44.8 C103.1,44 104,44.5 105.4,46.3 C109.2,51 110.7,49.9 111.2,42.2 C111.5,38.5 111.5,35 111.3,34.3 C110.6,32.5 101.2,32.2 99.5,34 C98.3,35.1 97.7,35.2 96.8,34.2 C96.1,33.5 94.8,33 93.8,33 C91.9,33 92,34.9 94.2,41 C94.8,42.7 94.8,43.2 94.1,42.5 C93.1,41.5 87.5,21.1 88.1,20.6 C88.3,20.5 93.1,18.6 98.8,16.5 C104.4,14.5 109,12.3 109,11.7 C109,9.6 101.9,4.2 97.6,3.1 C94.6,2.4 81.1,2.1 55.8,2.2 C35.3,2.3 24.1,2.6 30.9,2.7 z M52.1,28.7 C50.9,30.7 50.7,30.1 51.6,27.5 C52,26.6 52.5,26.1 52.7,26.4 C53,26.6 52.7,27.7 52.1,28.7 z M80.1,40.3 C78.8,41.6 78.6,35.9 79.8,32 C80.4,30 80.6,30.4 80.8,34.4 C81,37.1 80.6,39.8 80.1,40.3 z M49,33.4 C48.9,33.4 48.3,36 47.6,39 L46.3,44.5 L45.6,39.3 C44.8,33.6 45.3,31.8 47.5,32.7 C48.3,33 49,33.3 49,33.4 z M108.3,35.7 C107,36.5 106,37.9 106,38.7 C106,39.7 106.7,40 108.3,39.5 C110.3,39 110.3,39 108.7,40.1 C107.4,40.8 106.5,40.9 105.8,40.2 C104.4,38.8 105.7,35.2 107.8,34.7 C110.6,34 110.6,34 108.3,35.7 z M57.1,43.2 L56.7,47.5 L55.4,44 C54.7,42.1 54.1,39.4 54.1,38.1 C54,35.9 54.1,35.8 55.8,37.3 C57.1,38.5 57.5,40 57.1,43.2 z M88.7,40.2 C88.4,41 88.1,40.7 88.1,39.6 C88,38.5 88.3,37.9 88.6,38.3 C88.9,38.6 89,39.5 88.7,40.2 z M78,39.9 C78,40.5 77.6,41.2 77,41.5 C76.5,41.8 76,41.4 76,40.6 C76,39.7 76.5,39 77,39 C77.6,39 78,39.4 78,39.9 z M85,43.2 C85,44.2 80.1,52 79.5,52 C79.4,52 79.4,50 79.4,47.6 C79.5,45.2 79.8,43.7 80.2,44.3 C80.7,45.1 81,44.9 81,43.7 C81,42.7 81.8,42 83,42 C84.1,42 85,42.5 85,43.2 z M91,45.9 C92.2,48.9 91.5,51.5 88.8,53.8 C87.8,54.6 87.6,53.7 87.8,48.9 C88.2,42.4 89.1,41.5 91,45.9 z M96.1,47.6 C96.6,49.1 96.9,50.5 96.6,50.7 C96.4,50.9 95.8,49.7 95.2,48.1 C93.9,44.3 94.7,44 96.1,47.6 z M94.2,58.6 C93.9,65.2 92.7,67 91.1,63.1 C90.4,61.4 89.1,59.5 88.4,58.9 C87.1,57.9 87.3,57.3 89.7,54.8 C93.1,51.3 94.4,52.4 94.2,58.6 z M32.5,59 C32.9,60.1 34.7,63.1 36.6,65.5 C38.5,68 40,70.8 40,71.8 C40,73.8 42.2,77.3 46.1,81.5 C48.9,84.4 48.9,84.6 47.5,88.5 C46.7,90.7 46.1,93.4 46,94.4 C46,96.8 43.2,98.9 39.9,99 C37.5,99 37.2,98.7 37.2,94.9 C37.1,92.2 36.3,89.8 34.7,87.7 C33.4,85.9 31.4,82.7 30.2,80.4 C29.1,78.2 27.4,75.8 26.6,75.1 C25.7,74.3 25,72.7 25,71.4 C25,70.2 24.6,68.8 24,68.5 C22.2,67.4 22.9,65.5 26.6,61.2 C30.6,56.5 31.6,56.1 32.5,59 z M19.8,62.3 C20.4,63 20.6,64.7 20.3,66 C19.9,67.5 20.1,68.1 20.7,67.7 C21.3,67.3 22.3,68.3 22.9,70 C24.1,73.5 23.4,74.1 22,70.7 C21.4,69.2 21.1,69 21.1,70.2 C21,71.5 20.4,71.7 18.3,71.1 C14.9,70.2 13.6,66.1 15.7,63.1 C17.3,60.7 18.3,60.5 19.8,62.3 z M109,69.5 C108.3,70.4 107.5,70.8 107.2,70.5 C106.9,70.3 107.3,69.4 108,68.5 C108.7,67.6 109.5,67.2 109.8,67.5 C110.1,67.7 109.7,68.6 109,69.5 z" fill="#000000"/>
    <path d="M11.5,5 C11.2,5.6 11.6,5.7 12.4,5.4 C14.2,4.7 14.5,4 13.1,4 C12.5,4 11.8,4.4 11.5,5 z" fill="#000000"/>
    <path d="M7.4,8.2 L5.5,10.5 L7.8,8.6 C9,7.5 10,6.5 10,6.3 C10,5.5 9.2,6.1 7.4,8.2 z" fill="#000000"/>
    <path d="M35.9,9.7 L33.5,12.5 L36.3,10.1 C37.8,8.7 39,7.5 39,7.3 C39,6.5 38.2,7.2 35.9,9.7 z" fill="#000000"/>
    <path d="M45.6,15.6 C44.6,18.1 45.5,18.3 47.5,16 C49,14.3 49.1,14 47.8,14 C46.9,14 45.9,14.7 45.6,15.6 z" fill="#000000"/>
    <path d="M63.7,19.6 C62.4,21.3 62.2,22.5 62.9,23.7 C63.6,25.1 64,24.7 64.9,21.5 C65.5,19.4 65.8,17.5 65.7,17.4 C65.6,17.3 64.7,18.3 63.7,19.6 z" fill="#000000"/>
    <path d="M102.4,21.9 C97.9,23.9 97,25.4 97,30.7 C97,33 97.4,34 98.3,33.7 C99,33.5 99.4,32.1 99.2,30.4 C98.8,26.4 101.7,23.9 107.5,23.3 C110.4,22.9 112,22.3 112,21.4 C112,19.4 107.3,19.7 102.4,21.9 z" fill="#000000"/>
    <path d="M81.1,23.6 C81.1,24.7 81.4,25 81.7,24.2 C82,23.5 81.9,22.6 81.6,22.3 C81.3,21.9 81,22.5 81.1,23.6 z" fill="#000000"/>
    <path d="M46.5,50 C46.1,50.6 45.5,50.8 45.1,50.5 C44.6,50.3 43.7,52 43,54.5 C41.9,58.4 42,59.3 43.4,61.5 C45.5,64.7 46.2,64.7 45,61.4 C43.5,57.6 43.8,56.4 46.4,53.4 C48.6,50.7 48.8,50.7 50.5,52.3 C52.4,54.3 51.8,57 49.4,57 C48.1,57 47.9,57.6 48.4,59.7 C49.1,62.5 52.8,66.5 53.8,65.5 C54.1,65.2 53.5,64.3 52.4,63.5 C50.6,62.1 50.7,62.1 53.3,63 C56.5,64.1 56.5,64 57.4,56.9 C57.8,53.2 57.6,51.9 56.1,50.6 C54.2,48.8 47.5,48.4 46.5,50 z" fill="#000000"/>
    <path d="M40.2,60 C40.2,61.4 40.4,61.9 40.7,61.2 C40.9,60.6 40.9,59.4 40.7,58.7 C40.4,58.1 40.2,58.6 40.2,60 z" fill="#000000"/>
    <path d="M41.1,64.6 C41.1,65.7 41.4,66 41.7,65.2 C42,64.5 41.9,63.6 41.6,63.3 C41.3,62.9 41,63.5 41.1,64.6 z" fill="#000000"/>
    <path d="M55,79 C55,81.4 56.5,81.7 57.4,79.4 C58.3,77.2 58.2,77 56.5,77 C55.7,77 55,77.9 55,79 z" fill="#000000"/>
    <path d="M64.6,79.7 C65.2,80.1 66,81.2 66.3,82 C66.8,83.1 66.9,82.9 66.7,81.6 C66.6,80.5 65.8,79.5 65,79.3 C64,79 63.9,79.1 64.6,79.7 z" fill="#000000"/>
    <path d="M24.1,84.7 C24,86.4 24.5,88.2 25,88.5 C26.2,89.2 26.2,86.3 25,83.5 C24.3,81.8 24.1,82 24.1,84.7 z" fill="#000000"/>
    <path d="M63.8,86.2 C62.8,87.2 62.4,88 62.9,88 C63.9,88 66.5,85.1 65.9,84.6 C65.7,84.5 64.7,85.2 63.8,86.2 z" fill="#000000"/>
    <path d="M7,88.9 C7,91.5 8,94 9.1,94 C9.6,94 10,93.1 10,92 C10,90.9 9.6,90 9,90 C8.5,90 8.3,89.3 8.6,88.5 C9,87.7 8.7,87 8.1,87 C7.5,87 7,87.9 7,88.9 z" fill="#000000"/>
    <path d="M20.7,94.9 C19,95.5 19,95.8 20.3,96.8 C21.5,97.8 21.9,97.7 22.3,96 C22.6,94.9 22.7,94 22.7,94.1 C22.6,94.1 21.7,94.5 20.7,94.9 z" fill="#000000"/>
    <path d="M25.8,97.8 C25.4,99.3 24.7,99.8 23.6,99.4 C22.7,99.1 22,99.3 22,99.9 C22,101.5 24.5,101.3 26,99.5 C26.6,98.7 27,97.5 26.8,96.8 C26.5,96.1 26.1,96.6 25.8,97.8 z" fill="#000000"/>
    <path d="M65.1,101.4 C64.3,102.4 64.2,103 65,103.5 C65.6,103.9 66,103.8 65.9,103.3 C65.6,101.3 66.1,100.6 67,102 C67.5,102.8 68.2,103.2 68.5,102.9 C68.8,102.5 68.4,101.8 67.7,101.1 C66.6,100.2 66,100.3 65.1,101.4 z" fill="#000000"/>
    <path d="M16.8,102.2 C17.3,102.7 18.4,103 19.1,102.8 C19.9,102.5 19.4,102.1 18.1,101.7 C16.4,101.3 16,101.4 16.8,102.2 z" fill="#000000"/>
    <path d="M49.3,103.5 C49.3,104.3 49.6,104.7 49.9,104.5 C50.2,104.3 52.3,105 54.4,106.1 C57.9,107.8 58.1,107.8 56.8,106.2 C55.9,105.3 55,103.8 54.7,103 C54.3,101.9 54.1,102 54.1,103.4 C54,105.1 53.8,105.1 51.7,103.7 C49.8,102.5 49.3,102.4 49.3,103.5 z" fill="#000000"/>
    <path d="M71,102.9 C71,104.1 74.9,105.4 75.7,104.6 C76.1,104.3 75.6,104 74.7,104 C73.8,104 73,103.5 73,103 C73,102.4 72.6,102 72,102 C71.5,102 71,102.4 71,102.9 z" fill="#000000"/>
    <path d="M46.4,108.2 C45.4,109.5 45.2,110 45.9,109.3 C47,108.4 47.8,108.4 49.4,109.2 C51.4,110.3 51.4,110.2 50,108.4 C49.2,107.4 48.5,106.4 48.4,106.2 C48.4,106.1 47.5,107 46.4,108.2 z" fill="#000000"/>
    <path d="M85.3,109.7 C82.8,112.2 83.5,112.7 86.4,110.5 C87.4,109.8 88,108.8 87.9,108.3 C87.7,107.9 86.5,108.5 85.3,109.7 z" fill="#000000"/>
    <path d="M52.6,109.5 C52.3,110.3 52.5,111 53,111 C53.6,111 54,110.3 54,109.5 C54,108.7 53.8,108 53.6,108 C53.4,108 53,108.7 52.6,109.5 z" fill="#000000"/>
    <path d="M67.5,111.1 C65.9,111.7 66.1,111.9 68.8,111.9 C72.1,112 72.9,111.5 70.8,110.7 C70.1,110.5 68.6,110.6 67.5,111.1 z" fill="#000000"/>
    <path d="M90,111 C90.8,111.5 92,112 92.5,112 C93.1,112 92.8,111.5 92,111 C91.2,110.5 90.1,110 89.5,110 C89,110 89.2,110.5 90,111 z" fill="#000000"/>
  </g>
</svg>
