<?xml version="1.0" standalone="no"?>
<!DOCTYPE svg PUBLIC "-//W3C//DTD SVG 20010904//EN"
 "http://www.w3.org/TR/2001/REC-SVG-20010904/DTD/svg10.dtd">
<svg version="1.0" xmlns="http://www.w3.org/2000/svg"
 width="114.000000pt" height="114.000000pt" viewBox="0 0 114.000000 114.000000"
 preserveAspectRatio="xMidYMid meet">

<g transform="translate(0.000000,114.000000) scale(0.100000,-0.100000)"
fill="#000000" stroke="none">
<path d="M309 1113 l124 -4 -19 -21 -19 -22 32 22 c27 19 45 22 129 22 89 0
96 -1 78 -15 -16 -12 -13 -12 20 1 31 12 69 15 182 12 140 -3 143 -4 185 -33
23 -16 44 -35 46 -41 4 -13 -65 -36 -72 -24 -3 5 -20 19 -38 31 l-32 22 29
-31 c16 -18 28 -34 25 -36 -2 -2 -33 -14 -67 -26 -71 -26 -67 -13 -43 -131 14
-67 3 -109 -29 -109 -17 0 -20 7 -21 53 -1 92 -12 97 -42 20 -28 -72 -96 -193
-108 -193 -15 0 -39 121 -39 196 0 48 -4 74 -9 65 -7 -11 -9 -11 -14 0 -2 8
-8 -4 -12 -26 -12 -61 -17 -68 -43 -49 -19 13 -21 21 -16 55 4 25 3 39 -4 39
-15 0 -35 -38 -29 -54 4 -9 -3 -13 -16 -12 -19 1 -22 7 -20 41 l2 40 -15 -50
c-9 -27 -24 -75 -35 -105 l-19 -55 4 81 c3 53 11 98 24 128 26 57 20 61 -8 5
-29 -55 -45 -187 -34 -274 5 -42 9 -58 11 -40 9 87 53 200 53 136 0 -11 5 -32
12 -48 l11 -28 8 45 c10 53 28 100 39 100 4 0 10 -19 12 -42 3 -24 13 -61 23
-83 l18 -40 8 57 c5 32 14 68 21 80 11 21 13 18 20 -37 8 -66 30 -137 44 -142
5 -1 26 24 48 57 52 81 71 80 62 -2 l-7 -62 22 19 c12 11 35 40 51 64 l28 45
0 -35 c0 -18 -3 -51 -6 -71 l-6 -37 -47 6 c-52 6 -81 -11 -81 -48 0 -18 2 -18
23 5 20 23 24 24 41 11 22 -16 14 -50 -9 -41 -12 4 -15 -3 -15 -34 0 -43 29
-74 59 -62 14 5 13 7 -4 10 -36 7 -36 18 0 16 30 -3 36 0 41 22 3 13 4 36 2
49 -7 33 9 32 24 -1 9 -19 9 -33 1 -55 -6 -16 -7 -27 -2 -23 24 15 -13 -60
-50 -100 -26 -28 -26 -28 -3 -21 24 7 108 46 150 70 13 7 30 22 38 34 19 27
34 27 27 1 -8 -31 -67 -77 -109 -84 -20 -4 -52 -19 -71 -33 -41 -32 -150 -63
-218 -63 -58 0 -86 13 -155 71 -53 45 -73 70 -85 109 -7 22 -6 23 9 11 30 -25
16 -1 -20 36 -43 42 -79 116 -95 193 -14 67 0 161 37 240 28 62 25 81 -5 23
-36 -72 -54 -161 -48 -248 l5 -80 -40 -45 c-25 -28 -38 -37 -34 -25 2 11 17
83 31 160 14 77 33 162 42 188 8 27 13 50 10 53 -4 5 -32 -64 -42 -107 -5 -20
-21 -32 -80 -57 -41 -18 -77 -32 -80 -32 -6 0 78 111 173 230 l44 55 -43 -46
c-45 -47 -209 -253 -209 -262 0 -3 40 11 90 31 49 19 92 33 95 31 4 -5 -35
-219 -42 -228 -1 -2 -9 1 -16 8 -15 12 -29 0 -88 -71 -20 -25 -39 -38 -55 -38
-13 0 -24 -4 -24 -8 0 -4 26 -4 58 1 47 8 66 6 107 -10 49 -18 58 -28 110
-114 42 -70 49 -85 52 -118 2 -28 -4 -40 -32 -67 -20 -18 -62 -43 -95 -55 -33
-12 -57 -25 -55 -29 3 -5 11 -7 18 -6 17 3 96 45 130 68 l27 19 0 -26 c0 -30
16 -65 30 -65 6 0 5 8 -1 19 -17 26 -4 50 31 57 16 4 30 10 30 15 0 12 -7 11
-39 -6 -31 -16 -41 -12 -41 18 0 16 6 19 37 15 47 -6 69 16 78 75 11 69 17 74
58 43 20 -15 51 -31 69 -37 30 -8 34 -12 32 -41 -1 -28 -1 -29 3 -5 3 19 9 27
18 23 9 -3 12 0 9 9 -4 10 2 12 30 5 29 -6 45 -3 92 22 45 24 56 27 50 13 -3
-9 -6 -22 -6 -29 0 -7 -11 -30 -25 -50 -13 -20 -22 -36 -18 -36 3 0 -1 -8 -8
-17 -7 -10 1 -5 19 11 17 16 29 32 27 36 -3 5 1 23 9 41 9 21 16 28 18 18 3
-8 3 -3 1 9 -2 14 0 21 6 18 5 -4 11 4 13 16 5 35 31 33 92 -8 63 -41 81 -79
73 -150 -2 -24 -2 -44 1 -44 6 0 52 49 52 56 0 2 -10 9 -22 14 -22 8 -22 9 5
9 29 1 38 20 10 22 -10 1 -21 1 -24 1 -4 -1 -13 12 -20 29 -6 17 -37 49 -67
72 l-54 41 35 12 c39 14 112 57 144 86 17 16 19 25 13 47 -4 16 -3 35 2 45 14
25 -1 35 -18 11 -24 -34 -117 -125 -128 -125 -6 0 3 12 20 28 17 15 39 38 49
52 11 14 -10 -2 -45 -36 -65 -61 -108 -94 -122 -94 -4 0 6 23 22 51 17 27 39
75 49 106 15 45 20 52 28 38 9 -15 16 -16 65 -6 31 7 64 19 74 27 21 17 27 17
-73 -2 -31 -6 -34 -4 -49 31 -8 20 -13 39 -11 42 3 2 10 -12 17 -31 13 -39 22
-42 81 -24 46 13 51 28 10 28 -20 0 -37 9 -55 31 -26 30 -35 56 -16 44 6 -3
10 -12 10 -19 0 -41 91 -63 98 -23 3 12 -3 17 -22 17 -15 0 -31 8 -38 20 -7
11 -19 20 -26 20 -7 0 -10 5 -6 12 5 8 14 3 28 -15 38 -47 53 -36 58 41 3 37
3 72 1 79 -7 18 -101 21 -118 3 -12 -11 -18 -12 -27 -2 -7 7 -20 12 -30 12
-19 0 -18 -19 4 -80 6 -17 6 -22 -1 -15 -10 10 -66 214 -60 219 2 1 50 20 107
41 56 20 102 42 102 48 0 21 -71 75 -114 86 -30 7 -165 10 -418 9 -205 -1
-317 -4 -249 -5z m212 -260 c-12 -20 -14 -14 -5 12 4 9 9 14 11 11 3 -2 0 -13
-6 -23z m280 -116 c-13 -13 -15 44 -3 83 6 20 8 16 10 -24 2 -27 -2 -54 -7
-59z m-311 69 c-1 0 -7 -26 -14 -56 l-13 -55 -7 52 c-8 57 -3 75 19 66 8 -3
15 -6 15 -7z m593 -23 c-13 -8 -23 -22 -23 -30 0 -10 7 -13 23 -8 20 5 20 5 4
-6 -13 -7 -22 -8 -29 -1 -14 14 -1 50 20 55 28 7 28 7 5 -10z m-512 -75 l-4
-43 -13 35 c-7 19 -13 46 -13 59 -1 22 0 23 17 8 13 -12 17 -27 13 -59z m316
30 c-3 -8 -6 -5 -6 6 -1 11 2 17 5 13 3 -3 4 -12 1 -19z m-107 3 c0 -6 -4 -13
-10 -16 -5 -3 -10 1 -10 9 0 9 5 16 10 16 6 0 10 -4 10 -9z m70 -33 c0 -10
-49 -88 -55 -88 -1 0 -1 20 -1 44 1 24 4 39 8 33 5 -8 8 -6 8 6 0 10 8 17 20
17 11 0 20 -5 20 -12z m60 -27 c12 -30 5 -56 -22 -79 -10 -8 -12 1 -10 49 4
65 13 74 32 30z m51 -17 c5 -15 8 -29 5 -31 -2 -2 -8 10 -14 26 -13 38 -5 41
9 5z m-19 -110 c-3 -66 -15 -84 -31 -45 -7 17 -20 36 -27 42 -13 10 -11 16 13
41 34 35 47 24 45 -38z m-617 -4 c4 -11 22 -41 41 -65 19 -25 34 -53 34 -63 0
-20 22 -55 61 -97 28 -29 28 -31 14 -70 -8 -22 -14 -49 -15 -59 0 -24 -28 -45
-61 -46 -24 0 -27 3 -27 41 -1 27 -9 51 -25 72 -13 18 -33 50 -45 73 -11 22
-28 46 -36 53 -9 8 -16 24 -16 37 0 12 -4 26 -10 29 -18 11 -11 30 26 73 40
47 50 51 59 22z m-127 -33 c6 -7 8 -24 5 -37 -4 -15 -2 -21 4 -17 6 4 16 -6
22 -23 12 -35 5 -41 -9 -7 -6 15 -9 17 -9 5 -1 -13 -7 -15 -28 -9 -34 9 -47
50 -26 80 16 24 26 26 41 8z m892 -72 c-7 -9 -15 -13 -18 -10 -3 2 1 11 8 20
7 9 15 13 18 10 3 -2 -1 -11 -8 -20z"/>
<path d="M115 1090 c-3 -6 1 -7 9 -4 18 7 21 14 7 14 -6 0 -13 -4 -16 -10z"/>
<path d="M74 1058 l-19 -23 23 19 c12 11 22 21 22 23 0 8 -8 2 -26 -19z"/>
<path d="M359 1043 l-24 -28 28 24 c15 14 27 26 27 28 0 8 -8 1 -31 -24z"/>
<path d="M456 984 c-10 -25 -1 -27 19 -4 15 17 16 20 3 20 -9 0 -19 -7 -22
-16z"/>
<path d="M637 944 c-13 -17 -15 -29 -8 -41 7 -14 11 -10 20 22 6 21 9 40 8 41
-1 1 -10 -9 -20 -22z"/>
<path d="M1024 921 c-45 -20 -54 -35 -54 -88 0 -23 4 -33 13 -30 7 2 11 16 9
33 -4 40 25 65 83 71 29 4 45 10 45 19 0 20 -47 17 -96 -5z"/>
<path d="M811 904 c0 -11 3 -14 6 -6 3 7 2 16 -1 19 -3 4 -6 -2 -5 -13z"/>
<path d="M465 640 c-4 -6 -10 -8 -14 -5 -5 2 -14 -15 -21 -40 -11 -39 -10 -48
4 -70 21 -32 28 -32 16 1 -15 38 -12 50 14 80 22 27 24 27 41 11 19 -20 13
-47 -11 -47 -13 0 -15 -6 -10 -27 7 -28 44 -68 54 -58 3 3 -3 12 -14 20 -18
14 -17 14 9 5 32 -11 32 -10 41 61 4 37 2 50 -13 63 -19 18 -86 22 -96 6z"/>
<path d="M402 540 c0 -14 2 -19 5 -12 2 6 2 18 0 25 -3 6 -5 1 -5 -13z"/>
<path d="M411 494 c0 -11 3 -14 6 -6 3 7 2 16 -1 19 -3 4 -6 -2 -5 -13z"/>
<path d="M550 350 c0 -24 15 -27 24 -4 9 22 8 24 -9 24 -8 0 -15 -9 -15 -20z"/>
<path d="M646 343 c6 -4 14 -15 17 -23 5 -11 6 -9 4 4 -1 11 -9 21 -17 23 -10
3 -11 2 -4 -4z"/>
<path d="M241 293 c-1 -17 4 -35 9 -38 12 -7 12 22 0 50 -7 17 -9 15 -9 -12z"/>
<path d="M638 278 c-10 -10 -14 -18 -9 -18 10 0 36 29 30 34 -2 1 -12 -6 -21
-16z"/>
<path d="M70 251 c0 -26 10 -51 21 -51 5 0 9 9 9 20 0 11 -4 20 -10 20 -5 0
-7 7 -4 15 4 8 1 15 -5 15 -6 0 -11 -9 -11 -19z"/>
<path d="M207 191 c-17 -6 -17 -9 -4 -19 12 -10 16 -9 20 8 3 11 4 20 4 19 -1
0 -10 -4 -20 -8z"/>
<path d="M258 162 c-4 -15 -11 -20 -22 -16 -9 3 -16 1 -16 -5 0 -16 25 -14 40
4 6 8 10 20 8 27 -3 7 -7 2 -10 -10z"/>
<path d="M651 126 c-8 -10 -9 -16 -1 -21 6 -4 10 -3 9 2 -3 20 2 27 11 13 5
-8 12 -12 15 -9 3 4 -1 11 -8 18 -11 9 -17 8 -26 -3z"/>
<path d="M168 118 c5 -5 16 -8 23 -6 8 3 3 7 -10 11 -17 4 -21 3 -13 -5z"/>
<path d="M493 105 c0 -8 3 -12 6 -10 3 2 24 -5 45 -16 35 -17 37 -17 24 -1 -9
9 -18 24 -21 32 -4 11 -6 10 -6 -4 -1 -17 -3 -17 -24 -3 -19 12 -24 13 -24 2z"/>
<path d="M710 111 c0 -12 39 -25 47 -17 4 3 -1 6 -10 6 -9 0 -17 5 -17 10 0 6
-4 10 -10 10 -5 0 -10 -4 -10 -9z"/>
<path d="M464 58 c-10 -13 -12 -18 -5 -11 11 9 19 9 35 1 20 -11 20 -10 6 8
-8 10 -15 20 -16 22 0 1 -9 -8 -20 -20z"/>
<path d="M853 43 c-25 -25 -18 -30 11 -8 10 7 16 17 15 22 -2 4 -14 -2 -26
-14z"/>
<path d="M526 45 c-3 -8 -1 -15 4 -15 6 0 10 7 10 15 0 8 -2 15 -4 15 -2 0 -6
-7 -10 -15z"/>
<path d="M675 29 c-16 -6 -14 -8 13 -8 33 -1 41 4 20 12 -7 2 -22 1 -33 -4z"/>
<path d="M900 30 c8 -5 20 -10 25 -10 6 0 3 5 -5 10 -8 5 -19 10 -25 10 -5 0
-3 -5 5 -10z"/>
</g>
</svg>
